<svg xmlns="http://www.w3.org/2000/svg" xmlns:xlink="http://www.w3.org/1999/xlink">
    <symbol id="downloadIcon" width="35" height="35" viewBox="0 0 35 35" fill="none">
        <path fill-rule="evenodd" clip-rule="evenodd" d="M2.1875 17.5C2.1875 21.5611 3.80078 25.4559 6.67243 28.3276C9.54408 31.1992 13.4389 32.8125 17.5 32.8125C21.5611 32.8125 25.4559 31.1992 28.3276 28.3276C31.1992 25.4559 32.8125 21.5611 32.8125 17.5C32.8125 13.4389 31.1992 9.54408 28.3276 6.67243C25.4559 3.80078 21.5611 2.1875 17.5 2.1875C13.4389 2.1875 9.54408 3.80078 6.67243 6.67243C3.80078 9.54408 2.1875 13.4389 2.1875 17.5ZM35 17.5C35 22.1413 33.1563 26.5925 29.8744 29.8744C26.5925 33.1563 22.1413 35 17.5 35C12.8587 35 8.40752 33.1563 5.12563 29.8744C1.84374 26.5925 0 22.1413 0 17.5C0 12.8587 1.84374 8.40752 5.12563 5.12563C8.40752 1.84374 12.8587 0 17.5 0C22.1413 0 26.5925 1.84374 29.8744 5.12563C33.1563 8.40752 35 12.8587 35 17.5ZM18.5938 9.84375C18.5938 9.55367 18.4785 9.27547 18.2734 9.07035C18.0683 8.86523 17.7901 8.75 17.5 8.75C17.2099 8.75 16.9317 8.86523 16.7266 9.07035C16.5215 9.27547 16.4062 9.55367 16.4062 9.84375V22.5159L11.7119 17.8194C11.5065 17.614 11.2279 17.4986 10.9375 17.4986C10.6471 17.4986 10.3685 17.614 10.1631 17.8194C9.95775 18.0248 9.84237 18.3033 9.84237 18.5938C9.84237 18.8842 9.95775 19.1627 10.1631 19.3681L16.7256 25.9306C16.8272 26.0325 16.9479 26.1133 17.0808 26.1684C17.2137 26.2236 17.3561 26.252 17.5 26.252C17.6439 26.252 17.7863 26.2236 17.9192 26.1684C18.0521 26.1133 18.1728 26.0325 18.2744 25.9306L24.8369 19.3681C25.0423 19.1627 25.1576 18.8842 25.1576 18.5938C25.1576 18.3033 25.0423 18.0248 24.8369 17.8194C24.6315 17.614 24.3529 17.4986 24.0625 17.4986C23.7721 17.4986 23.4935 17.614 23.2881 17.8194L18.5938 22.5159V9.84375Z" fill="white"/>
    </symbol>
    <symbol id="tempIcon" width="23" height="26" viewBox="0 0 23 26" fill="none">
        <path d="M1.625 4.0625C1.625 2.98506 2.05301 1.95175 2.81488 1.18988C3.57675 0.428012 4.61006 0 5.6875 0C6.76494 0 7.79826 0.428012 8.56012 1.18988C9.32199 1.95175 9.75 2.98506 9.75 4.0625V16.3313C10.5338 17.1312 11.064 18.1448 11.274 19.2448C11.4841 20.3449 11.3647 21.4825 10.9309 22.515C10.497 23.5475 9.76801 24.4289 8.83523 25.0487C7.90245 25.6685 6.80744 25.9992 5.6875 25.9992C4.56756 25.9992 3.47255 25.6685 2.53977 25.0487C1.60699 24.4289 0.877967 23.5475 0.444112 22.515C0.010256 21.4825 -0.109118 20.3449 0.100958 19.2448C0.311034 18.1448 0.841209 17.1312 1.625 16.3313V4.0625ZM5.6875 1.625C5.04104 1.625 4.42105 1.88181 3.96393 2.33893C3.50681 2.79605 3.25 3.41604 3.25 4.0625V17.0414L2.97863 17.2851C2.36531 17.8336 1.93298 18.5554 1.73887 19.3549C1.54475 20.1545 1.59799 20.9942 1.89155 21.7628C2.1851 22.5314 2.70513 23.1928 3.38282 23.6594C4.0605 24.126 4.8639 24.3759 5.68669 24.3759C6.50948 24.3759 7.31287 24.126 7.99056 23.6594C8.66824 23.1928 9.18827 22.5314 9.48183 21.7628C9.77538 20.9942 9.82863 20.1545 9.63451 19.3549C9.44039 18.5554 9.00807 17.8336 8.39475 17.2851L8.125 17.0398V4.0625C8.125 3.41604 7.86819 2.79605 7.41107 2.33893C6.95395 1.88181 6.33397 1.625 5.6875 1.625ZM13.8125 3.25C14.028 3.25 14.2347 3.3356 14.387 3.48798C14.5394 3.64035 14.625 3.84701 14.625 4.0625V6.16363L15.6747 5.11225C15.8273 4.95968 16.0342 4.87397 16.25 4.87397C16.4658 4.87397 16.6727 4.95968 16.8252 5.11225C16.9778 5.26482 17.0635 5.47174 17.0635 5.6875C17.0635 5.90326 16.9778 6.11018 16.8252 6.26275L14.625 8.46138V11.5928L17.3371 10.0279L18.1415 7.02163C18.1692 6.91855 18.217 6.82196 18.2821 6.73735C18.3472 6.65274 18.4283 6.58177 18.5208 6.52851C18.6133 6.47524 18.7153 6.44072 18.8212 6.4269C18.927 6.41309 19.0346 6.42026 19.1376 6.448C19.2407 6.47574 19.3373 6.52351 19.4219 6.58859C19.5065 6.65366 19.5775 6.73476 19.6307 6.82726C19.684 6.91976 19.7185 7.02184 19.7323 7.12769C19.7462 7.23353 19.739 7.34105 19.7112 7.44413L19.3261 8.87738L21.1461 7.82763C21.3326 7.72158 21.5535 7.69361 21.7606 7.74983C21.9676 7.80604 22.1441 7.94188 22.2513 8.12769C22.3586 8.31349 22.3881 8.53419 22.3332 8.74162C22.2784 8.94905 22.1437 9.12637 21.9586 9.23488L20.1386 10.2846L21.5751 10.6698C21.6782 10.6975 21.7748 10.7453 21.8594 10.8103C21.944 10.8754 22.015 10.9565 22.0682 11.049C22.1215 11.1415 22.156 11.2436 22.1698 11.3494C22.1837 11.4553 22.1765 11.5628 22.1487 11.6659C22.121 11.7689 22.0732 11.8655 22.0082 11.9502C21.9431 12.0348 21.862 12.1057 21.7695 12.159C21.677 12.2123 21.5749 12.2468 21.4691 12.2606C21.3632 12.2744 21.2557 12.2672 21.1526 12.2395L18.1496 11.4351L15.4375 13L18.1496 14.5649L21.1542 13.7605C21.258 13.7309 21.3665 13.7223 21.4736 13.7351C21.5807 13.7479 21.6841 13.782 21.7779 13.8352C21.8717 13.8884 21.954 13.9597 22.0199 14.0451C22.0859 14.1304 22.1342 14.228 22.162 14.3322C22.1898 14.4364 22.1966 14.5451 22.182 14.6519C22.1674 14.7588 22.1317 14.8617 22.0769 14.9546C22.0221 15.0475 21.9494 15.1285 21.863 15.193C21.7765 15.2575 21.6781 15.3042 21.5735 15.3303L20.1386 15.7154L21.9586 16.7651C22.1437 16.8736 22.2784 17.051 22.3332 17.2584C22.3881 17.4658 22.3586 17.6865 22.2513 17.8723C22.1441 18.0581 21.9676 18.194 21.7606 18.2502C21.5535 18.3064 21.3326 18.2784 21.1461 18.1724L19.3261 17.1226L19.7112 18.5575C19.7408 18.6612 19.7494 18.7698 19.7366 18.8769C19.7238 18.9839 19.6898 19.0874 19.6366 19.1812C19.5834 19.275 19.512 19.3573 19.4267 19.4232C19.3413 19.4891 19.2437 19.5374 19.1395 19.5652C19.0353 19.5931 18.9267 19.5999 18.8198 19.5853C18.713 19.5707 18.6101 19.5349 18.5172 19.4802C18.4243 19.4254 18.3432 19.3527 18.2787 19.2662C18.2142 19.1798 18.1676 19.0814 18.1415 18.9768L17.3387 15.9738L14.625 14.4073V17.5386L16.8252 19.7373C16.9008 19.8128 16.9607 19.9025 17.0016 20.0012C17.0425 20.0999 17.0635 20.2057 17.0635 20.3125C17.0635 20.4193 17.0425 20.5251 17.0016 20.6238C16.9607 20.7225 16.9008 20.8122 16.8252 20.8878C16.7497 20.9633 16.66 21.0232 16.5613 21.0641C16.4626 21.105 16.3568 21.126 16.25 21.126C16.1432 21.126 16.0374 21.105 15.9387 21.0641C15.84 21.0232 15.7503 20.9633 15.6747 20.8878L14.625 19.8364V21.9375C14.625 22.153 14.5394 22.3597 14.387 22.512C14.2347 22.6644 14.028 22.75 13.8125 22.75C13.597 22.75 13.3903 22.6644 13.238 22.512C13.0856 22.3597 13 22.153 13 21.9375V4.0625C13 3.84701 13.0856 3.64035 13.238 3.48798C13.3903 3.3356 13.597 3.25 13.8125 3.25Z" fill="#0098BF"/>
    </symbol>
    <symbol id="downIcon" width="14" height="8" viewBox="0 0 14 8" fill="none">
        <path d="M2 0L7 5L12 0L14 1L7 8L0 1L2 0Z" fill="#2F2F2F"/>
    </symbol>
    <symbol id="360Icon" width="60" height="35" viewBox="0 0 60 35" fill="none">
        <g clip-path="url(#clip0_443_452)">
            <path d="M51.142 13.8786V17.1457C56.1763 18.794 57.3259 20.5357 57.3259 21.1032C57.3259 21.7132 56.0008 23.6793 49.9498 25.4281C46.264 26.4932 41.7247 27.226 36.7688 27.5752V30.7353C41.9495 30.3785 46.7112 29.6128 50.5858 28.4931C56.8327 26.6878 60 24.2017 60 21.1033C60 18.0984 57.0204 15.6692 51.142 13.8786Z" fill="#231F20"/>
            <path d="M26.2395 27.7375C20.1176 27.5048 14.4704 26.7055 10.0503 25.4281C3.99923 23.6793 2.67412 21.7132 2.67412 21.1033C2.67412 20.4934 3.99923 18.5273 10.0503 16.7785C10.2625 16.7172 10.4786 16.6573 10.6963 16.5982V13.3648C10.2594 13.4771 9.83103 13.593 9.41414 13.7134C3.16728 15.5187 0 18.0049 0 21.1033C0 24.2017 3.16728 26.6879 9.4142 28.4932C14.0282 29.8266 19.8998 30.6584 26.2397 30.8947L24.7355 34.9092L33.4262 28.9923L24.7354 22.0894L26.2395 27.7375Z" fill="#231F20"/>
            <path d="M19.1113 17.4517C18.2109 18.1339 17.1448 18.4749 15.9132 18.4747C14.6101 18.4747 13.4257 18.144 12.3598 17.4827L11.365 19.0638C12.5493 19.9317 13.947 20.3657 15.5581 20.3657C17.6901 20.3657 19.4136 19.8749 20.7284 18.8932C22.0433 17.9116 22.7007 16.6148 22.7008 15.0027C22.7008 13.9693 22.3692 13.1012 21.706 12.3984C21.0429 11.6955 20.1545 11.2512 19.0409 11.0655C20.5094 9.97013 21.2438 8.99873 21.244 8.15126C21.244 7.28333 20.865 6.59093 20.107 6.07407C19.3489 5.55722 18.4011 5.29888 17.2636 5.29907C15.9843 5.29907 14.8413 5.59874 13.8344 6.19807C12.8276 6.7974 12.0992 7.61375 11.6491 8.64712L13.2482 9.36021C13.5558 8.71968 14.071 8.16166 14.7939 7.68616C15.4919 7.2183 16.3152 6.96986 17.157 6.97307C18.4595 6.97307 19.111 7.37613 19.1113 8.18224C19.1113 8.71976 18.5783 9.4225 17.5123 10.2905C16.5552 11.0498 15.5188 11.7046 14.4208 12.2434L15.3802 13.6075C16.1854 13.0083 17.0264 12.7086 17.9032 12.7085C18.6372 12.7085 19.2472 12.9359 19.7333 13.3908C19.9674 13.6022 20.1535 13.861 20.2791 14.1496C20.4047 14.4383 20.467 14.7503 20.4617 15.0648C20.4615 15.9744 20.0114 16.77 19.1113 17.4517Z" fill="#231F20"/>
            <path d="M34.5331 12.0265C33.5615 11.0964 32.3651 10.6313 30.944 10.6313C29.6647 10.6313 28.6579 10.9515 27.9236 11.5921C28.5154 10.4558 29.4867 9.42768 30.8374 8.50759C32.1881 7.58751 33.6095 6.95196 35.1016 6.60096L34.8883 5.0509C31.9978 5.54676 29.6526 6.70411 27.8526 8.52294C26.0519 10.3422 25.1517 12.44 25.1519 14.8164C25.1519 16.4907 25.6908 17.8341 26.7687 18.8468C27.8466 19.8594 29.2147 20.3658 30.873 20.3659C32.3655 20.3659 33.5914 19.8956 34.5508 18.9551C35.5102 18.0147 35.9899 16.8521 35.99 15.4675C35.99 14.1034 35.5043 12.9564 34.5331 12.0265ZM33.0048 17.6687C32.3886 18.3097 31.6542 18.6299 30.8016 18.6295C29.9011 18.6295 29.1372 18.3195 28.5097 17.6995C27.8822 17.0795 27.5683 16.3355 27.568 15.4674C27.568 14.579 27.8819 13.8298 28.5097 13.2198C29.137 12.6105 29.901 12.3056 30.8016 12.3052C31.6546 12.3052 32.389 12.6255 33.0048 13.266C33.6206 13.9065 33.9286 14.6403 33.9287 15.4672C33.9289 16.2943 33.6209 17.0281 33.0048 17.6687Z" fill="#231F20"/>
            <path d="M43.9496 20.397C45.7974 20.397 47.2188 19.658 48.2138 18.1801C49.2087 16.7023 49.7062 14.9197 49.7063 12.8325C49.7063 10.7451 49.2088 8.96249 48.2138 7.48454C47.2188 6.00659 45.7974 5.26776 43.9496 5.26807C42.1729 5.26807 40.7871 6.00689 39.7921 7.48454C38.797 8.96219 38.2995 10.7448 38.2996 12.8325C38.2996 14.9201 38.7971 16.7026 39.7921 18.1801C40.7871 19.6576 42.1729 20.3966 43.9496 20.397ZM41.4267 8.60076C41.9952 7.51558 42.8599 6.97301 44.0207 6.97304C45.1578 6.97304 46.0106 7.51562 46.5791 8.60076C47.1476 9.68591 47.4319 11.0965 47.432 12.8325C47.432 14.5684 47.1477 15.9789 46.5791 17.0642C46.0106 18.1495 45.1459 18.6919 43.9851 18.6916C42.8481 18.6916 41.9953 18.1492 41.4267 17.0642C40.8582 15.9792 40.5739 14.5687 40.5739 12.8325C40.5739 11.0964 40.8582 9.68583 41.4267 8.60076Z" fill="#231F20"/>
            <path d="M52.2385 5.29908C53.0668 5.29908 53.7039 5.04025 54.1499 4.5226C54.5958 4.00495 54.8188 3.38059 54.8188 2.64951C54.8188 1.9184 54.5958 1.29402 54.1499 0.776365C53.7039 0.258713 53.0668 -7.57855e-05 52.2385 1.66476e-08C51.4422 1.66476e-08 50.8209 0.258788 50.3747 0.776365C49.9286 1.29394 49.7057 1.91825 49.7061 2.64928C49.7061 3.38051 49.929 4.00487 50.375 4.52237C50.8209 5.03987 51.4421 5.29878 52.2385 5.29908ZM51.1077 1.16733C51.3625 0.787224 51.7501 0.597188 52.2704 0.597226C52.78 0.597226 53.1623 0.787262 53.4172 1.16733C53.672 1.54741 53.7994 2.04139 53.7994 2.64928C53.7994 3.25737 53.672 3.75145 53.4172 4.13152C53.1623 4.51159 52.7747 4.70163 52.2543 4.70163C51.7446 4.70163 51.3623 4.51161 51.1075 4.13158C50.8527 3.75154 50.7253 3.25744 50.7254 2.64928C50.7254 2.04143 50.8528 1.54744 51.1077 1.16733Z" fill="#231F20"/>
        </g>
        <defs>
            <clipPath id="clip0_443_452">
                <rect width="60" height="34.9091" fill="white"/>
            </clipPath>
        </defs>
    </symbol>
    <symbol id="hotspotIcon" viewBox="0 0 23 23" fill="none">
        <circle opacity="0.15" r="10.9648" transform="matrix(-1 0 0 1 11.4648 11.4648)" fill="#FD0000" stroke="#D44D4D"/>
        <g opacity="0.4">
            <circle r="5" transform="matrix(-1 0 0 1 11.0312 11.4531)" fill="#FD0000"/>
            <circle r="4.5" transform="matrix(-1 0 0 1 11.0312 11.4531)" stroke="#FD0000" stroke-opacity="0.79"/>
        </g>
    </symbol>
    <symbol id="slideHotspotIcon" viewBox="0 0 73 73" fill="none">
        <circle opacity="0.1" r="36" transform="matrix(1 -8.74228e-08 -8.74228e-08 -1 36.5 36.5)" fill="#FD0000" stroke="#D44D4D"/>
        <circle opacity="0.1" r="27" transform="matrix(1 -8.74228e-08 -8.74228e-08 -1 36.5 36.5)" fill="#FD0000" stroke="#D44D4D"/>
        <circle opacity="0.15" r="16" transform="matrix(1 -8.74228e-08 -8.74228e-08 -1 36.5 36.5)" fill="#FD0000" stroke="#D44D4D"/>
        <g opacity="0.4">
            <circle r="5" transform="matrix(1 -8.74228e-08 -8.74228e-08 -1 36.9687 36.5469)" fill="#FD0000"/>
            <circle r="4.5" transform="matrix(1 -8.74228e-08 -8.74228e-08 -1 36.9687 36.5469)" stroke="#FD0000" stroke-opacity="0.79"/>
        </g>
    </symbol>
    <symbol id="degreeIcon" viewBox="0 0 7 8" fill="currentColor">
        <path d="M3.732 0.623999C4.204 0.623999 4.636 0.699999 5.028 0.852C5.42 0.996 5.756 1.208 6.036 1.488C6.316 1.768 6.532 2.108 6.684 2.508C6.836 2.908 6.912 3.356 6.912 3.852C6.912 4.356 6.836 4.808 6.684 5.208C6.532 5.608 6.316 5.948 6.036 6.228C5.756 6.508 5.42 6.724 5.028 6.876C4.636 7.028 4.204 7.104 3.732 7.104C3.26 7.104 2.828 7.028 2.436 6.876C2.044 6.724 1.708 6.508 1.428 6.228C1.148 5.948 0.928 5.608 0.768 5.208C0.616 4.808 0.54 4.356 0.54 3.852C0.54 3.356 0.616 2.908 0.768 2.508C0.928 2.108 1.148 1.768 1.428 1.488C1.708 1.208 2.044 0.996 2.436 0.852C2.828 0.699999 3.26 0.623999 3.732 0.623999ZM3.732 5.7C4.188 5.7 4.52 5.552 4.728 5.256C4.936 4.952 5.04 4.488 5.04 3.864C5.04 3.24 4.936 2.78 4.728 2.484C4.52 2.18 4.188 2.028 3.732 2.028C2.844 2.028 2.4 2.64 2.4 3.864C2.4 5.088 2.844 5.7 3.732 5.7Z" fill="currentColor"/>
    </symbol>
    <symbol id="360IconNew" viewBox="0 0 51 45.842" style="&#10;">
        <g id="Layer_2" data-name="Layer 2">
            <g id="Layer_2-2" data-name="Layer 2">
                <polygon points="25.294 0.577 7.731 10.769 7.776 31.075 25.384 41.189 42.947 30.997 42.902 10.691 25.294 0.577" fill="none" stroke="#fff" stroke-miterlimit="10"/>
                <g>
                    <line x1="25.294" y1="0.577" x2="25.294" y2="1.766" fill="none" stroke="#fff" stroke-linecap="round" stroke-miterlimit="10"/>
                    <line x1="25.294" y1="4.337" x2="25.294" y2="18.479" fill="none" stroke="#fff" stroke-linecap="round" stroke-miterlimit="10" stroke-dasharray="2.571 2.571"/>
                    <polyline points="25.294 19.765 25.294 20.954 24.265 21.548" fill="none" stroke="#fff" stroke-linecap="round" stroke-miterlimit="10"/>
                    <line x1="22.056" y1="22.824" x2="9.91" y2="29.842" fill="none" stroke="#fff" stroke-linecap="round" stroke-miterlimit="10" stroke-dasharray="2.551 2.551"/>
                    <line x1="8.805" y1="30.48" x2="7.776" y2="31.075" fill="none" stroke="#fff" stroke-linecap="round" stroke-miterlimit="10"/>
                </g>
                <line x1="7.731" y1="10.769" x2="25.294" y2="20.954" fill="none" stroke="#fff" stroke-miterlimit="10"/>
                <line x1="42.902" y1="10.691" x2="25.294" y2="20.954" fill="none" stroke="#fff" stroke-miterlimit="10"/>
                <g>
                    <line x1="25.294" y1="20.954" x2="26.327" y2="21.541" fill="none" stroke="#fff" stroke-linecap="round" stroke-miterlimit="10"/>
                    <line x1="28.554" y1="22.808" x2="40.8" y2="29.776" fill="none" stroke="#fff" stroke-linecap="round" stroke-miterlimit="10" stroke-dasharray="2.562 2.562"/>
                    <line x1="41.914" y1="30.409" x2="42.947" y2="30.997" fill="none" stroke="#fff" stroke-linecap="round" stroke-miterlimit="10"/>
                </g>
                <path d="M7.822,18.792C3.3,21.607.5,25.5.5,29.79" fill="none" stroke="#fff" stroke-miterlimit="10"/>
                <path d="M2.5,35.9c3.816,5.553,12.677,9.444,23,9.444,13.807,0,25-6.963,25-15.552,0-3.71-2.088-7.117-5.573-9.79" fill="none" stroke="#fff" stroke-miterlimit="10"/>
                <polyline points="6.895 37.59 2.298 35.684 3.848 41.003" fill="none" stroke="#fff" stroke-linecap="round" stroke-miterlimit="10"/>
            </g>
        </g>
    </symbol>
</svg>