<svg xmlns="http://www.w3.org/2000/svg" xmlns:xlink="http://www.w3.org/1999/xlink">
    <symbol id="downloadIcon" width="35" height="35" viewBox="0 0 35 35" fill="none">
        <path fill-rule="evenodd" clip-rule="evenodd" d="M2.1875 17.5C2.1875 21.5611 3.80078 25.4559 6.67243 28.3276C9.54408 31.1992 13.4389 32.8125 17.5 32.8125C21.5611 32.8125 25.4559 31.1992 28.3276 28.3276C31.1992 25.4559 32.8125 21.5611 32.8125 17.5C32.8125 13.4389 31.1992 9.54408 28.3276 6.67243C25.4559 3.80078 21.5611 2.1875 17.5 2.1875C13.4389 2.1875 9.54408 3.80078 6.67243 6.67243C3.80078 9.54408 2.1875 13.4389 2.1875 17.5ZM35 17.5C35 22.1413 33.1563 26.5925 29.8744 29.8744C26.5925 33.1563 22.1413 35 17.5 35C12.8587 35 8.40752 33.1563 5.12563 29.8744C1.84374 26.5925 0 22.1413 0 17.5C0 12.8587 1.84374 8.40752 5.12563 5.12563C8.40752 1.84374 12.8587 0 17.5 0C22.1413 0 26.5925 1.84374 29.8744 5.12563C33.1563 8.40752 35 12.8587 35 17.5ZM18.5938 9.84375C18.5938 9.55367 18.4785 9.27547 18.2734 9.07035C18.0683 8.86523 17.7901 8.75 17.5 8.75C17.2099 8.75 16.9317 8.86523 16.7266 9.07035C16.5215 9.27547 16.4062 9.55367 16.4062 9.84375V22.5159L11.7119 17.8194C11.5065 17.614 11.2279 17.4986 10.9375 17.4986C10.6471 17.4986 10.3685 17.614 10.1631 17.8194C9.95775 18.0248 9.84237 18.3033 9.84237 18.5938C9.84237 18.8842 9.95775 19.1627 10.1631 19.3681L16.7256 25.9306C16.8272 26.0325 16.9479 26.1133 17.0808 26.1684C17.2137 26.2236 17.3561 26.252 17.5 26.252C17.6439 26.252 17.7863 26.2236 17.9192 26.1684C18.0521 26.1133 18.1728 26.0325 18.2744 25.9306L24.8369 19.3681C25.0423 19.1627 25.1576 18.8842 25.1576 18.5938C25.1576 18.3033 25.0423 18.0248 24.8369 17.8194C24.6315 17.614 24.3529 17.4986 24.0625 17.4986C23.7721 17.4986 23.4935 17.614 23.2881 17.8194L18.5938 22.5159V9.84375Z" fill="white"/>
    </symbol>
    <symbol id="tempIcon" width="23" height="26" viewBox="0 0 23 26" fill="none">
        <path d="M1.625 4.0625C1.625 2.98506 2.05301 1.95175 2.81488 1.18988C3.57675 0.428012 4.61006 0 5.6875 0C6.76494 0 7.79826 0.428012 8.56012 1.18988C9.32199 1.95175 9.75 2.98506 9.75 4.0625V16.3313C10.5338 17.1312 11.064 18.1448 11.274 19.2448C11.4841 20.3449 11.3647 21.4825 10.9309 22.515C10.497 23.5475 9.76801 24.4289 8.83523 25.0487C7.90245 25.6685 6.80744 25.9992 5.6875 25.9992C4.56756 25.9992 3.47255 25.6685 2.53977 25.0487C1.60699 24.4289 0.877967 23.5475 0.444112 22.515C0.010256 21.4825 -0.109118 20.3449 0.100958 19.2448C0.311034 18.1448 0.841209 17.1312 1.625 16.3313V4.0625ZM5.6875 1.625C5.04104 1.625 4.42105 1.88181 3.96393 2.33893C3.50681 2.79605 3.25 3.41604 3.25 4.0625V17.0414L2.97863 17.2851C2.36531 17.8336 1.93298 18.5554 1.73887 19.3549C1.54475 20.1545 1.59799 20.9942 1.89155 21.7628C2.1851 22.5314 2.70513 23.1928 3.38282 23.6594C4.0605 24.126 4.8639 24.3759 5.68669 24.3759C6.50948 24.3759 7.31287 24.126 7.99056 23.6594C8.66824 23.1928 9.18827 22.5314 9.48183 21.7628C9.77538 20.9942 9.82863 20.1545 9.63451 19.3549C9.44039 18.5554 9.00807 17.8336 8.39475 17.2851L8.125 17.0398V4.0625C8.125 3.41604 7.86819 2.79605 7.41107 2.33893C6.95395 1.88181 6.33397 1.625 5.6875 1.625ZM13.8125 3.25C14.028 3.25 14.2347 3.3356 14.387 3.48798C14.5394 3.64035 14.625 3.84701 14.625 4.0625V6.16363L15.6747 5.11225C15.8273 4.95968 16.0342 4.87397 16.25 4.87397C16.4658 4.87397 16.6727 4.95968 16.8252 5.11225C16.9778 5.26482 17.0635 5.47174 17.0635 5.6875C17.0635 5.90326 16.9778 6.11018 16.8252 6.26275L14.625 8.46138V11.5928L17.3371 10.0279L18.1415 7.02163C18.1692 6.91855 18.217 6.82196 18.2821 6.73735C18.3472 6.65274 18.4283 6.58177 18.5208 6.52851C18.6133 6.47524 18.7153 6.44072 18.8212 6.4269C18.927 6.41309 19.0346 6.42026 19.1376 6.448C19.2407 6.47574 19.3373 6.52351 19.4219 6.58859C19.5065 6.65366 19.5775 6.73476 19.6307 6.82726C19.684 6.91976 19.7185 7.02184 19.7323 7.12769C19.7462 7.23353 19.739 7.34105 19.7112 7.44413L19.3261 8.87738L21.1461 7.82763C21.3326 7.72158 21.5535 7.69361 21.7606 7.74983C21.9676 7.80604 22.1441 7.94188 22.2513 8.12769C22.3586 8.31349 22.3881 8.53419 22.3332 8.74162C22.2784 8.94905 22.1437 9.12637 21.9586 9.23488L20.1386 10.2846L21.5751 10.6698C21.6782 10.6975 21.7748 10.7453 21.8594 10.8103C21.944 10.8754 22.015 10.9565 22.0682 11.049C22.1215 11.1415 22.156 11.2436 22.1698 11.3494C22.1837 11.4553 22.1765 11.5628 22.1487 11.6659C22.121 11.7689 22.0732 11.8655 22.0082 11.9502C21.9431 12.0348 21.862 12.1057 21.7695 12.159C21.677 12.2123 21.5749 12.2468 21.4691 12.2606C21.3632 12.2744 21.2557 12.2672 21.1526 12.2395L18.1496 11.4351L15.4375 13L18.1496 14.5649L21.1542 13.7605C21.258 13.7309 21.3665 13.7223 21.4736 13.7351C21.5807 13.7479 21.6841 13.782 21.7779 13.8352C21.8717 13.8884 21.954 13.9597 22.0199 14.0451C22.0859 14.1304 22.1342 14.228 22.162 14.3322C22.1898 14.4364 22.1966 14.5451 22.182 14.6519C22.1674 14.7588 22.1317 14.8617 22.0769 14.9546C22.0221 15.0475 21.9494 15.1285 21.863 15.193C21.7765 15.2575 21.6781 15.3042 21.5735 15.3303L20.1386 15.7154L21.9586 16.7651C22.1437 16.8736 22.2784 17.051 22.3332 17.2584C22.3881 17.4658 22.3586 17.6865 22.2513 17.8723C22.1441 18.0581 21.9676 18.194 21.7606 18.2502C21.5535 18.3064 21.3326 18.2784 21.1461 18.1724L19.3261 17.1226L19.7112 18.5575C19.7408 18.6612 19.7494 18.7698 19.7366 18.8769C19.7238 18.9839 19.6898 19.0874 19.6366 19.1812C19.5834 19.275 19.512 19.3573 19.4267 19.4232C19.3413 19.4891 19.2437 19.5374 19.1395 19.5652C19.0353 19.5931 18.9267 19.5999 18.8198 19.5853C18.713 19.5707 18.6101 19.5349 18.5172 19.4802C18.4243 19.4254 18.3432 19.3527 18.2787 19.2662C18.2142 19.1798 18.1676 19.0814 18.1415 18.9768L17.3387 15.9738L14.625 14.4073V17.5386L16.8252 19.7373C16.9008 19.8128 16.9607 19.9025 17.0016 20.0012C17.0425 20.0999 17.0635 20.2057 17.0635 20.3125C17.0635 20.4193 17.0425 20.5251 17.0016 20.6238C16.9607 20.7225 16.9008 20.8122 16.8252 20.8878C16.7497 20.9633 16.66 21.0232 16.5613 21.0641C16.4626 21.105 16.3568 21.126 16.25 21.126C16.1432 21.126 16.0374 21.105 15.9387 21.0641C15.84 21.0232 15.7503 20.9633 15.6747 20.8878L14.625 19.8364V21.9375C14.625 22.153 14.5394 22.3597 14.387 22.512C14.2347 22.6644 14.028 22.75 13.8125 22.75C13.597 22.75 13.3903 22.6644 13.238 22.512C13.0856 22.3597 13 22.153 13 21.9375V4.0625C13 3.84701 13.0856 3.64035 13.238 3.48798C13.3903 3.3356 13.597 3.25 13.8125 3.25Z" fill="#0098BF"/>
    </symbol>
    <symbol id="downIcon" width="14" height="8" viewBox="0 0 14 8" fill="none">
        <path d="M2 0L7 5L12 0L14 1L7 8L0 1L2 0Z" fill="#2F2F2F"/>
    </symbol>
    <symbol id="360Icon" width="60" height="35" viewBox="0 0 60 35" fill="none">
        <g clip-path="url(#clip0_443_452)">
            <path d="M51.142 13.8786V17.1457C56.1763 18.794 57.3259 20.5357 57.3259 21.1032C57.3259 21.7132 56.0008 23.6793 49.9498 25.4281C46.264 26.4932 41.7247 27.226 36.7688 27.5752V30.7353C41.9495 30.3785 46.7112 29.6128 50.5858 28.4931C56.8327 26.6878 60 24.2017 60 21.1033C60 18.0984 57.0204 15.6692 51.142 13.8786Z" fill="#231F20"/>
            <path d="M26.2395 27.7375C20.1176 27.5048 14.4704 26.7055 10.0503 25.4281C3.99923 23.6793 2.67412 21.7132 2.67412 21.1033C2.67412 20.4934 3.99923 18.5273 10.0503 16.7785C10.2625 16.7172 10.4786 16.6573 10.6963 16.5982V13.3648C10.2594 13.4771 9.83103 13.593 9.41414 13.7134C3.16728 15.5187 0 18.0049 0 21.1033C0 24.2017 3.16728 26.6879 9.4142 28.4932C14.0282 29.8266 19.8998 30.6584 26.2397 30.8947L24.7355 34.9092L33.4262 28.9923L24.7354 22.0894L26.2395 27.7375Z" fill="#231F20"/>
            <path d="M19.1113 17.4517C18.2109 18.1339 17.1448 18.4749 15.9132 18.4747C14.6101 18.4747 13.4257 18.144 12.3598 17.4827L11.365 19.0638C12.5493 19.9317 13.947 20.3657 15.5581 20.3657C17.6901 20.3657 19.4136 19.8749 20.7284 18.8932C22.0433 17.9116 22.7007 16.6148 22.7008 15.0027C22.7008 13.9693 22.3692 13.1012 21.706 12.3984C21.0429 11.6955 20.1545 11.2512 19.0409 11.0655C20.5094 9.97013 21.2438 8.99873 21.244 8.15126C21.244 7.28333 20.865 6.59093 20.107 6.07407C19.3489 5.55722 18.4011 5.29888 17.2636 5.29907C15.9843 5.29907 14.8413 5.59874 13.8344 6.19807C12.8276 6.7974 12.0992 7.61375 11.6491 8.64712L13.2482 9.36021C13.5558 8.71968 14.071 8.16166 14.7939 7.68616C15.4919 7.2183 16.3152 6.96986 17.157 6.97307C18.4595 6.97307 19.111 7.37613 19.1113 8.18224C19.1113 8.71976 18.5783 9.4225 17.5123 10.2905C16.5552 11.0498 15.5188 11.7046 14.4208 12.2434L15.3802 13.6075C16.1854 13.0083 17.0264 12.7086 17.9032 12.7085C18.6372 12.7085 19.2472 12.9359 19.7333 13.3908C19.9674 13.6022 20.1535 13.861 20.2791 14.1496C20.4047 14.4383 20.467 14.7503 20.4617 15.0648C20.4615 15.9744 20.0114 16.77 19.1113 17.4517Z" fill="#231F20"/>
            <path d="M34.5331 12.0265C33.5615 11.0964 32.3651 10.6313 30.944 10.6313C29.6647 10.6313 28.6579 10.9515 27.9236 11.5921C28.5154 10.4558 29.4867 9.42768 30.8374 8.50759C32.1881 7.58751 33.6095 6.95196 35.1016 6.60096L34.8883 5.0509C31.9978 5.54676 29.6526 6.70411 27.8526 8.52294C26.0519 10.3422 25.1517 12.44 25.1519 14.8164C25.1519 16.4907 25.6908 17.8341 26.7687 18.8468C27.8466 19.8594 29.2147 20.3658 30.873 20.3659C32.3655 20.3659 33.5914 19.8956 34.5508 18.9551C35.5102 18.0147 35.9899 16.8521 35.99 15.4675C35.99 14.1034 35.5043 12.9564 34.5331 12.0265ZM33.0048 17.6687C32.3886 18.3097 31.6542 18.6299 30.8016 18.6295C29.9011 18.6295 29.1372 18.3195 28.5097 17.6995C27.8822 17.0795 27.5683 16.3355 27.568 15.4674C27.568 14.579 27.8819 13.8298 28.5097 13.2198C29.137 12.6105 29.901 12.3056 30.8016 12.3052C31.6546 12.3052 32.389 12.6255 33.0048 13.266C33.6206 13.9065 33.9286 14.6403 33.9287 15.4672C33.9289 16.2943 33.6209 17.0281 33.0048 17.6687Z" fill="#231F20"/>
            <path d="M43.9496 20.397C45.7974 20.397 47.2188 19.658 48.2138 18.1801C49.2087 16.7023 49.7062 14.9197 49.7063 12.8325C49.7063 10.7451 49.2088 8.96249 48.2138 7.48454C47.2188 6.00659 45.7974 5.26776 43.9496 5.26807C42.1729 5.26807 40.7871 6.00689 39.7921 7.48454C38.797 8.96219 38.2995 10.7448 38.2996 12.8325C38.2996 14.9201 38.7971 16.7026 39.7921 18.1801C40.7871 19.6576 42.1729 20.3966 43.9496 20.397ZM41.4267 8.60076C41.9952 7.51558 42.8599 6.97301 44.0207 6.97304C45.1578 6.97304 46.0106 7.51562 46.5791 8.60076C47.1476 9.68591 47.4319 11.0965 47.432 12.8325C47.432 14.5684 47.1477 15.9789 46.5791 17.0642C46.0106 18.1495 45.1459 18.6919 43.9851 18.6916C42.8481 18.6916 41.9953 18.1492 41.4267 17.0642C40.8582 15.9792 40.5739 14.5687 40.5739 12.8325C40.5739 11.0964 40.8582 9.68583 41.4267 8.60076Z" fill="#231F20"/>
            <path d="M52.2385 5.29908C53.0668 5.29908 53.7039 5.04025 54.1499 4.5226C54.5958 4.00495 54.8188 3.38059 54.8188 2.64951C54.8188 1.9184 54.5958 1.29402 54.1499 0.776365C53.7039 0.258713 53.0668 -7.57855e-05 52.2385 1.66476e-08C51.4422 1.66476e-08 50.8209 0.258788 50.3747 0.776365C49.9286 1.29394 49.7057 1.91825 49.7061 2.64928C49.7061 3.38051 49.929 4.00487 50.375 4.52237C50.8209 5.03987 51.4421 5.29878 52.2385 5.29908ZM51.1077 1.16733C51.3625 0.787224 51.7501 0.597188 52.2704 0.597226C52.78 0.597226 53.1623 0.787262 53.4172 1.16733C53.672 1.54741 53.7994 2.04139 53.7994 2.64928C53.7994 3.25737 53.672 3.75145 53.4172 4.13152C53.1623 4.51159 52.7747 4.70163 52.2543 4.70163C51.7446 4.70163 51.3623 4.51161 51.1075 4.13158C50.8527 3.75154 50.7253 3.25744 50.7254 2.64928C50.7254 2.04143 50.8528 1.54744 51.1077 1.16733Z" fill="#231F20"/>
        </g>
        <defs>
            <clipPath id="clip0_443_452">
                <rect width="60" height="34.9091" fill="white"/>
            </clipPath>
        </defs>
    </symbol>
    <symbol id="hotspotIcon" viewBox="0 0 23 23" fill="none">
        <circle opacity="0.15" r="10.9648" transform="matrix(-1 0 0 1 11.4648 11.4648)" fill="#FD0000" stroke="#D44D4D"/>
        <g opacity="0.4">
            <circle r="5" transform="matrix(-1 0 0 1 11.0312 11.4531)" fill="#FD0000"/>
            <circle r="4.5" transform="matrix(-1 0 0 1 11.0312 11.4531)" stroke="#FD0000" stroke-opacity="0.79"/>
        </g>
    </symbol>
    <symbol id="slideHotspotIcon" viewBox="0 0 73 73" fill="none">
        <circle opacity="0.1" r="36" transform="matrix(1 -8.74228e-08 -8.74228e-08 -1 36.5 36.5)" fill="#FD0000" stroke="#D44D4D"/>
        <circle opacity="0.1" r="27" transform="matrix(1 -8.74228e-08 -8.74228e-08 -1 36.5 36.5)" fill="#FD0000" stroke="#D44D4D"/>
        <circle opacity="0.15" r="16" transform="matrix(1 -8.74228e-08 -8.74228e-08 -1 36.5 36.5)" fill="#FD0000" stroke="#D44D4D"/>
        <g opacity="0.4">
            <circle r="5" transform="matrix(1 -8.74228e-08 -8.74228e-08 -1 36.9687 36.5469)" fill="#FD0000"/>
            <circle r="4.5" transform="matrix(1 -8.74228e-08 -8.74228e-08 -1 36.9687 36.5469)" stroke="#FD0000" stroke-opacity="0.79"/>
        </g>
    </symbol>
    <symbol id="degreeIcon" viewBox="0 0 7 8" fill="none">
        <path d="M3.732 0.623999C4.204 0.623999 4.636 0.699999 5.028 0.852C5.42 0.996 5.756 1.208 6.036 1.488C6.316 1.768 6.532 2.108 6.684 2.508C6.836 2.908 6.912 3.356 6.912 3.852C6.912 4.356 6.836 4.808 6.684 5.208C6.532 5.608 6.316 5.948 6.036 6.228C5.756 6.508 5.42 6.724 5.028 6.876C4.636 7.028 4.204 7.104 3.732 7.104C3.26 7.104 2.828 7.028 2.436 6.876C2.044 6.724 1.708 6.508 1.428 6.228C1.148 5.948 0.928 5.608 0.768 5.208C0.616 4.808 0.54 4.356 0.54 3.852C0.54 3.356 0.616 2.908 0.768 2.508C0.928 2.108 1.148 1.768 1.428 1.488C1.708 1.208 2.044 0.996 2.436 0.852C2.828 0.699999 3.26 0.623999 3.732 0.623999ZM3.732 5.7C4.188 5.7 4.52 5.552 4.728 5.256C4.936 4.952 5.04 4.488 5.04 3.864C5.04 3.24 4.936 2.78 4.728 2.484C4.52 2.18 4.188 2.028 3.732 2.028C2.844 2.028 2.4 2.64 2.4 3.864C2.4 5.088 2.844 5.7 3.732 5.7Z" fill="#0098BF"/>
    </symbol>
    <symbol id="360IconNew" xmlns="http://www.w3.org/2000/svg" viewBox="0 0 75 68" fill="none">
        <g clip-path="url(#clip0_207_12)">
            <path d="M35.9398 23.9137C35.7739 23.9104 35.6102 23.8743 35.4583 23.8074C35.3063 23.7405 35.169 23.6442 35.0543 23.5239C34.9395 23.4037 34.8495 23.2619 34.7895 23.1067C34.7295 22.9515 34.7006 22.7859 34.7046 22.6195C34.7085 22.453 34.7451 22.289 34.8124 22.1368C34.8796 21.9846 34.9762 21.8473 35.0965 21.7326C35.2168 21.6179 35.3584 21.5282 35.5134 21.4686C35.6683 21.409 35.8335 21.3807 35.9994 21.3852C36.1209 21.3881 36.2489 21.3914 36.3833 21.3952C36.7153 21.4031 37.0308 21.5421 37.2612 21.782C37.4916 22.0219 37.6183 22.3434 37.6138 22.6765C37.6092 23.0097 37.4738 23.3275 37.237 23.5611C37.0001 23.7946 36.6809 23.9249 36.3488 23.9237C36.3369 23.9237 36.3252 23.9237 36.3127 23.9237C36.1825 23.9196 36.0582 23.9162 35.9398 23.9137ZM29.5866 23.9487C29.7106 23.9443 29.8346 23.9401 29.9584 23.9362C30.1244 23.9317 30.2879 23.8945 30.4395 23.8265C30.5911 23.7585 30.7278 23.6611 30.8418 23.54C30.9558 23.4189 31.0448 23.2763 31.1037 23.1206C31.1626 22.9648 31.1902 22.7989 31.185 22.6324C31.1798 22.4659 31.1419 22.3021 31.0734 22.1504C31.0049 21.9986 30.9072 21.8619 30.7859 21.7482C30.6646 21.6344 30.5221 21.5458 30.3665 21.4875C30.211 21.4291 30.0455 21.4022 29.8796 21.4082C29.7515 21.4122 29.6235 21.4166 29.4956 21.4213C29.1659 21.4338 28.8542 21.5754 28.6275 21.8159C28.4007 22.0563 28.277 22.3764 28.2828 22.7073C28.2886 23.0383 28.4236 23.3537 28.6587 23.586C28.8938 23.8182 29.2102 23.9488 29.5402 23.9496C29.5557 23.9496 29.571 23.9494 29.5873 23.9487H29.5866ZM48.6368 24.8052C48.7599 24.8217 48.8818 24.8384 49.0025 24.8554C49.0611 24.8636 49.1202 24.8677 49.1793 24.8677C49.4987 24.8679 49.8062 24.7464 50.0397 24.5278C50.2733 24.3093 50.4154 24.01 50.4374 23.6903C50.4595 23.3707 50.3597 23.0546 50.1584 22.8059C49.957 22.5572 49.6691 22.3944 49.3528 22.3505C49.2259 22.3327 49.0978 22.3152 48.9684 22.298C48.6387 22.2573 48.3063 22.3489 48.0435 22.5528C47.7807 22.7567 47.6088 23.0564 47.5651 23.3868C47.5214 23.7171 47.6095 24.0515 47.8102 24.3171C48.0108 24.5827 48.3079 24.758 48.6368 24.8051V24.8052ZM10.0673 27.469C10.232 27.4689 10.395 27.4364 10.5472 27.3734C10.6584 27.3273 10.7702 27.2818 10.8826 27.237C11.0364 27.1757 11.1767 27.0846 11.2955 26.969C11.4142 26.8533 11.5091 26.7153 11.5747 26.5628C11.6403 26.4103 11.6753 26.2464 11.6777 26.0804C11.6801 25.9143 11.6499 25.7494 11.5888 25.5951C11.5278 25.4408 11.437 25.3 11.3216 25.1809C11.2063 25.0617 11.0688 24.9666 10.9168 24.9008C10.7648 24.835 10.6014 24.7999 10.4359 24.7974C10.2704 24.795 10.106 24.8253 9.95216 24.8866C9.82953 24.9348 9.70767 24.9843 9.58661 25.0349C9.31674 25.1465 9.09383 25.3485 8.95591 25.6066C8.818 25.8647 8.77361 26.1628 8.83034 26.45C8.88707 26.7373 9.04139 26.9959 9.26698 27.1817C9.49257 27.3675 9.77544 27.4691 10.0673 27.469ZM4.49505 30.644C4.77796 30.6441 5.05263 30.5484 5.27453 30.3724C5.36684 30.2992 5.46005 30.2267 5.55416 30.155C5.68799 30.0555 5.80083 29.9304 5.88616 29.7869C5.97149 29.6433 6.02762 29.4843 6.0513 29.3188C6.07497 29.1534 6.06574 28.9849 6.02411 28.8231C5.98249 28.6613 5.90931 28.5094 5.8088 28.3761C5.70829 28.2428 5.58245 28.1308 5.43854 28.0467C5.29464 27.9625 5.13553 27.9077 4.97041 27.8856C4.80529 27.8635 4.63744 27.8744 4.47656 27.9178C4.31567 27.9611 4.16495 28.036 4.0331 28.1382C3.92575 28.2199 3.81942 28.3022 3.71412 28.3852C3.5079 28.5478 3.35739 28.7709 3.28354 29.0234C3.2097 29.2759 3.2162 29.5452 3.30215 29.7938C3.3881 30.0424 3.54921 30.2579 3.76304 30.4103C3.97686 30.5627 4.23275 30.6444 4.49505 30.644ZM16.1962 25.5572C16.2914 25.5571 16.3864 25.5463 16.4792 25.5249C16.5984 25.4974 16.7178 25.4704 16.8375 25.4438C17.1623 25.3697 17.4447 25.1698 17.623 24.8875C17.8013 24.6053 17.861 24.2637 17.789 23.9374C17.717 23.6112 17.5193 23.3268 17.239 23.1463C16.9587 22.9659 16.6185 22.904 16.2929 22.9743C16.1667 23.0025 16.0408 23.0309 15.9153 23.0596C15.6134 23.1292 15.3476 23.3077 15.1686 23.5612C14.9895 23.8147 14.9098 24.1254 14.9445 24.4342C14.9792 24.7429 15.126 25.028 15.3569 25.2351C15.5877 25.4422 15.8865 25.5569 16.1962 25.5572ZM57.3808 43.2217C64.0886 40.8675 67.7827 37.5692 67.7827 33.9325C67.7827 30.2162 64.0075 26.9127 57.109 24.549L60.9632 22.7541C61.1152 22.6853 61.252 22.587 61.3657 22.4649C61.4795 22.3427 61.568 22.1991 61.6261 22.0424C61.6842 21.8857 61.7108 21.719 61.7042 21.5519C61.6977 21.3848 61.6582 21.2207 61.588 21.0691C61.5178 20.9174 61.4184 20.7812 61.2954 20.6684C61.1724 20.5555 61.0284 20.4683 60.8715 20.4117C60.7147 20.355 60.5483 20.3302 60.3818 20.3385C60.2154 20.3468 60.0522 20.3882 59.9018 20.4602L53.1747 23.5932C52.8854 23.7279 52.6577 23.9677 52.5376 24.2642C52.4175 24.5606 52.4139 24.8918 52.5276 25.1908L55.3296 32.5615C55.3876 32.7179 55.476 32.8612 55.5895 32.9832C55.7031 33.1052 55.8396 33.2035 55.9911 33.2723C56.1427 33.3411 56.3064 33.3792 56.4727 33.3842C56.639 33.3893 56.8046 33.3613 56.9601 33.3018C57.1155 33.2424 57.2577 33.1526 57.3784 33.0377C57.4992 32.9229 57.596 32.7852 57.6634 32.6326C57.7308 32.48 57.7675 32.3155 57.7712 32.1486C57.7749 31.9818 57.7457 31.8158 57.6852 31.6603L55.8349 26.7886C61.7579 28.7401 65.2629 31.3803 65.2629 33.9325C65.2629 36.34 62.0056 38.9201 56.5497 40.8343C53.4979 41.9052 49.9301 42.7321 46.0393 43.2882C46.3476 40.2019 46.5006 37.1019 46.4978 34.0001C46.4978 25.1176 45.2856 16.7488 43.0846 10.4352C40.738 3.70597 37.4496 0 33.8244 0C30.1444 0 26.8705 3.7393 24.5176 10.5737L22.6972 6.30762C22.5656 5.99929 22.3172 5.75606 22.0068 5.63143C21.6963 5.50681 21.3493 5.511 21.0419 5.64308C20.7346 5.77516 20.4921 6.02432 20.3679 6.33573C20.2437 6.64715 20.2479 6.99532 20.3795 7.30365L23.5025 14.62C23.5679 14.7732 23.6629 14.912 23.7819 15.0283C23.901 15.1446 24.0418 15.2362 24.1962 15.2977C24.3507 15.3592 24.5157 15.3895 24.6819 15.3868C24.848 15.384 25.012 15.3484 25.1644 15.2819L32.7632 11.9651C32.916 11.8996 33.0545 11.8043 33.1705 11.6849C33.2865 11.5655 33.3779 11.4242 33.4393 11.2693C33.5006 11.1143 33.5309 10.9487 33.5282 10.7819C33.5255 10.6152 33.49 10.4506 33.4237 10.2977C33.3574 10.1448 33.2616 10.0065 33.1418 9.8909C33.022 9.77528 32.8806 9.68457 32.7257 9.624C32.5708 9.56342 32.4055 9.53418 32.2393 9.53795C32.0731 9.54172 31.9093 9.57843 31.7573 9.64596L26.7549 11.8289C28.695 5.98255 31.3029 2.5292 33.8244 2.5292C36.2243 2.5292 38.7961 5.79674 40.7042 11.27C41.7671 14.3188 42.589 17.8801 43.1434 21.7641C43.0521 21.7358 42.9579 21.7181 42.8625 21.7112C42.7347 21.7023 42.6074 21.6936 42.4805 21.6853C42.1469 21.6633 41.8183 21.7752 41.5669 21.9962C41.3155 22.2173 41.1619 22.5296 41.14 22.8642C41.1181 23.1989 41.2296 23.5286 41.45 23.7808C41.6704 24.033 41.9816 24.1871 42.3152 24.2091C42.4392 24.2172 42.5635 24.2256 42.6883 24.2344C42.7181 24.2364 42.7474 24.2373 42.7768 24.2373C43.009 24.2372 43.2367 24.1724 43.4344 24.0501C43.7996 27.354 43.9804 30.6759 43.976 34.0001C43.9795 37.2104 43.8107 40.4185 43.4705 43.6106C40.2886 43.9519 37.0907 44.1211 33.8907 44.1176C25.3126 44.1176 17.2659 42.9519 11.2331 40.8352C5.77728 38.921 2.52016 36.341 2.52016 33.9334C2.52016 33.5981 2.38735 33.2764 2.15095 33.0392C1.91455 32.8021 1.59392 32.6688 1.25959 32.6688C0.925269 32.6688 0.604638 32.8021 0.368236 33.0392C0.131833 33.2764 -0.000976562 33.5981 -0.000976562 33.9334C-0.000976562 37.5701 3.69318 40.8695 10.4008 43.2226C16.6944 45.4308 25.0366 46.6466 33.8907 46.6466C36.9827 46.6495 40.0728 46.496 43.1494 46.1868C42.5948 50.09 41.7706 53.6692 40.7032 56.7309C38.7951 62.2042 36.2232 65.4719 33.8234 65.4719C33.6566 65.4699 33.491 65.5011 33.3364 65.5638C33.1817 65.6264 33.0409 65.7192 32.9223 65.8369C32.8036 65.9545 32.7094 66.0946 32.6451 66.249C32.5808 66.4034 32.5477 66.5691 32.5477 66.7364C32.5477 66.9037 32.5808 67.0694 32.6451 67.2238C32.7094 67.3782 32.8036 67.5183 32.9223 67.6359C33.0409 67.7536 33.1817 67.8464 33.3364 67.909C33.491 67.9717 33.6566 68.0029 33.8234 68.0009C37.4486 68.0009 40.7373 64.2951 43.0829 57.5659C44.2623 54.1826 45.1575 50.209 45.7346 45.8828C50.0481 45.3029 54.0093 44.405 57.3816 43.2217H57.3808ZM23.4465 20.5496C23.7527 20.5492 24.0482 20.437 24.278 20.234C24.5077 20.031 24.656 19.751 24.695 19.4464C24.7109 19.3226 24.7271 19.2 24.7436 19.0784C24.7857 18.7474 24.6957 18.4131 24.4932 18.1484C24.2907 17.8837 23.9921 17.71 23.6625 17.6652C23.3329 17.6203 22.999 17.708 22.7335 17.9091C22.4681 18.1102 22.2926 18.4084 22.2454 18.7387C22.2283 18.8658 22.2114 18.9941 22.1946 19.1235C22.1719 19.3018 22.1873 19.483 22.2399 19.6549C22.2924 19.8268 22.3808 19.9855 22.4993 20.1204C22.6177 20.2554 22.7635 20.3634 22.9268 20.4374C23.0901 20.5115 23.2673 20.5497 23.4465 20.5496ZM21.6251 25.2484L21.6002 25.6307C21.5895 25.7964 21.6115 25.9626 21.6649 26.1198C21.7183 26.277 21.802 26.4221 21.9113 26.5469C22.0206 26.6716 22.1534 26.7735 22.3019 26.8468C22.4505 26.92 22.612 26.9632 22.7772 26.9739C22.8048 26.9757 22.8313 26.9766 22.8593 26.9766C23.1794 26.9763 23.4874 26.8538 23.7208 26.634C23.9542 26.4142 24.0955 26.1136 24.1161 25.7931L24.1406 25.4181C24.1631 25.0834 24.0521 24.7535 23.8321 24.501C23.612 24.2485 23.301 24.0939 22.9674 24.0714C22.6339 24.0489 22.305 24.1603 22.0533 24.381C21.8016 24.6017 21.6475 24.9137 21.6251 25.2484ZM21.3115 32.1344C21.308 32.3005 21.3371 32.4656 21.3971 32.6203C21.4572 32.7751 21.5471 32.9165 21.6616 33.0364C21.7761 33.1563 21.9131 33.2524 22.0646 33.3192C22.2162 33.3861 22.3793 33.4223 22.5449 33.4258H22.5723C22.9019 33.4257 23.2182 33.296 23.4537 33.0647C23.6891 32.8334 23.8249 32.5188 23.832 32.1882C23.8345 32.0707 23.8374 31.9452 23.8406 31.8126C23.8464 31.6456 23.8192 31.479 23.7604 31.3226C23.7017 31.1662 23.6126 31.023 23.4984 30.9014C23.3841 30.7797 23.247 30.682 23.0948 30.6138C22.9427 30.5457 22.7786 30.5084 22.6121 30.5043C22.4455 30.5002 22.2798 30.5292 22.1245 30.5897C21.9691 30.6502 21.8273 30.741 21.7072 30.8568C21.5871 30.9727 21.4911 31.1112 21.4247 31.2645C21.3583 31.4178 21.3228 31.5828 21.3204 31.75C21.317 31.8859 21.3141 32.0141 21.3115 32.1344ZM22.5651 36.9666C22.231 36.9782 21.9151 37.1223 21.6869 37.3675C21.4587 37.6126 21.337 37.9386 21.3484 38.2738C21.3527 38.4018 21.3573 38.5298 21.3623 38.6579C21.3746 38.9846 21.5126 39.2938 21.7473 39.5206C21.982 39.7474 22.2952 39.8742 22.621 39.8743C22.6371 39.8743 22.6535 39.8743 22.6698 39.8743C22.8352 39.868 22.9978 39.8291 23.1482 39.7598C23.2986 39.6904 23.434 39.592 23.5465 39.4702C23.659 39.3484 23.7465 39.2055 23.804 39.0498C23.8614 38.894 23.8878 38.7284 23.8814 38.5625C23.8767 38.4379 23.8722 38.3131 23.8679 38.1881C23.8563 37.8529 23.7126 37.5361 23.4683 37.307C23.2241 37.078 22.8992 36.9556 22.5651 36.9666ZM25.4435 51.4678C25.4163 51.3485 25.3894 51.2288 25.3628 51.1087C25.289 50.7829 25.0896 50.4996 24.8083 50.3207C24.5269 50.1419 24.1864 50.082 23.8612 50.1542C23.536 50.2264 23.2525 50.4248 23.0726 50.706C22.8927 50.9872 22.8311 51.3284 22.9012 51.6551C22.9292 51.7816 22.9576 51.9079 22.9864 52.0339C23.0221 52.1971 23.0897 52.3516 23.1853 52.4884C23.2809 52.6253 23.4026 52.7418 23.5433 52.8311C23.684 52.9205 23.841 52.9811 24.0052 53.0092C24.1694 53.0374 24.3375 53.0326 24.4998 52.9952C24.6621 52.9578 24.8155 52.8885 24.9509 52.7913C25.0864 52.6941 25.2014 52.5709 25.2891 52.4289C25.3768 52.2869 25.4357 52.1288 25.4622 51.9639C25.4887 51.7989 25.4823 51.6303 25.4435 51.4678ZM27.1503 57.0818C27.0268 56.7701 26.785 56.5204 26.478 56.3876C26.1709 56.2548 25.8239 56.2498 25.5132 56.3736C25.2025 56.4975 24.9536 56.7401 24.8212 57.0481C24.6888 57.3561 24.6838 57.7042 24.8073 58.0159C24.8554 58.1387 24.9046 58.2607 24.9548 58.3819C25.0174 58.5361 25.1097 58.6764 25.2264 58.7947C25.3431 58.913 25.482 59.007 25.6351 59.0713C25.7881 59.1357 25.9523 59.1691 26.1182 59.1696C26.2842 59.1701 26.4486 59.1378 26.602 59.0745C26.7555 59.0111 26.8949 58.918 27.0124 58.8004C27.1299 58.6829 27.2231 58.5432 27.2867 58.3895C27.3503 58.2357 27.3829 58.0708 27.3829 57.9044C27.3828 57.7379 27.3499 57.5731 27.2862 57.4194C27.2404 57.3078 27.195 57.1953 27.1503 57.0818ZM30.0604 62.4275C29.8589 62.1599 29.5596 61.9836 29.2285 61.9374C28.8974 61.8912 28.5616 61.9789 28.2949 62.1811C28.0282 62.3833 27.8525 62.6835 27.8064 63.0157C27.7603 63.3478 27.8477 63.6847 28.0493 63.9523C28.1305 64.0602 28.2126 64.1671 28.2957 64.273C28.5026 64.5365 28.8054 64.7067 29.1374 64.7462C29.4694 64.7857 29.8034 64.6912 30.066 64.4836C30.3286 64.276 30.4983 63.9723 30.5377 63.6392C30.577 63.3062 30.4829 62.9711 30.276 62.7076C30.2034 62.6153 30.1316 62.5221 30.0604 62.428V62.4275ZM53.0671 56.0449C53.557 55.8303 53.9802 55.4872 54.2921 55.0517C54.5968 54.6471 54.7632 54.1546 54.7664 53.6475C54.7664 52.6582 54.4515 51.8859 53.8219 51.3304C53.1922 50.7749 52.3262 50.4972 51.2237 50.4973C50.5987 50.488 49.9798 50.622 49.4143 50.8892C48.9013 51.1283 48.4652 51.5065 48.1552 51.9812C47.8557 52.4429 47.6987 52.983 47.7039 53.5338H49.5474C49.54 53.3229 49.5789 53.113 49.6615 52.9189C49.7441 52.7249 49.8683 52.5515 50.0252 52.411C50.3632 52.1173 50.7998 51.9636 51.2466 51.981C51.8128 51.981 52.234 52.1269 52.5102 52.4188C52.8029 52.7584 52.9513 53.1996 52.9236 53.6477C52.9236 54.1957 52.758 54.6143 52.4267 54.9034C52.0461 55.2097 51.5675 55.3667 51.0802 55.3449H49.9575V56.806H51.0422C51.7199 56.806 52.2307 56.9633 52.5747 57.2778C52.9186 57.5923 53.0906 58.0413 53.0906 58.625C53.0906 59.2034 52.9262 59.6448 52.5974 59.9491C52.2227 60.27 51.739 60.4336 51.2471 60.4057C50.766 60.4307 50.294 60.267 49.931 59.9491C49.7694 59.798 49.6421 59.6137 49.5576 59.4089C49.4732 59.204 49.4336 58.9834 49.4416 58.7619H47.5976C47.582 59.1928 47.6656 59.6216 47.8418 60.0149C48.0181 60.4082 48.2824 60.7555 48.6141 61.0298C49.2917 61.598 50.1616 61.8821 51.2237 61.882C52.3309 61.882 53.2247 61.5878 53.9053 60.9993C54.5858 60.4109 54.9259 59.6194 54.9256 58.625C54.9404 58.0553 54.7744 57.4957 54.4515 57.0268C54.1065 56.5596 53.6213 56.2157 53.0671 56.0454V56.0449ZM62.4542 55.4291C63.018 56.1191 63.3 57.0095 63.3001 58.1003C63.3001 59.2265 62.9701 60.1385 62.3101 60.8362C61.6501 61.5339 60.784 61.8827 59.7117 61.8825C59.2011 61.8978 58.6937 61.7953 58.2288 61.5829C57.7639 61.3705 57.3538 61.0539 57.0301 60.6574C56.3448 59.8407 56.0022 58.7701 56.0022 57.4458V56.8142C56.0022 54.8704 56.4738 53.3483 57.4169 52.248C58.3601 51.1476 59.7168 50.5972 61.4869 50.5966H61.6765V52.1261H61.449C60.4174 52.1414 59.593 52.4256 58.9759 52.9785C58.3588 53.5315 57.9917 54.3153 57.8747 55.3299C58.1655 55.022 58.5179 54.7794 58.9089 54.6181C59.2999 54.4568 59.7204 54.3804 60.143 54.394C61.1191 54.394 61.8892 54.739 62.4533 55.429L62.4542 55.4291ZM61.4718 58.1536C61.4978 57.5689 61.3267 56.9925 60.9862 56.5174C60.838 56.3154 60.6433 56.1525 60.4187 56.0425C60.1941 55.9325 59.9464 55.8787 59.6965 55.8857C59.2999 55.8832 58.9121 56.0027 58.5853 56.2281C58.2528 56.4512 57.995 56.7694 57.8451 57.1414V57.7044C57.8451 58.5264 58.017 59.1797 58.3609 59.6643C58.5042 59.8887 58.7019 60.0731 58.9355 60.2002C59.1691 60.3273 59.431 60.3929 59.6967 60.391C59.9463 60.4004 60.1945 60.3493 60.4203 60.2421C60.6461 60.135 60.8428 59.9748 60.9939 59.7753C61.331 59.3042 61.4991 58.7325 61.4709 58.1534L61.4718 58.1536ZM70.3577 51.662C70.9518 52.4383 71.2565 53.6001 71.2716 55.1475V57.0654C71.2716 58.659 70.9746 59.8603 70.3804 60.6692C69.7863 61.4781 68.8822 61.8825 67.6683 61.8825C66.4747 61.8825 65.5758 61.4881 64.9715 60.6992C64.3672 59.9104 64.0575 58.7423 64.0422 57.1948V55.2767C64.0422 53.683 64.3393 52.4882 64.9336 51.6922C65.5279 50.8962 66.4344 50.4978 67.6531 50.497C68.8613 50.4973 69.7625 50.8856 70.3568 51.6618L70.3577 51.662ZM69.428 54.995C69.428 53.9549 69.2863 53.1927 69.0031 52.7083C68.857 52.488 68.6597 52.3067 68.4282 52.1801C68.1966 52.0534 67.9378 51.9853 67.6741 51.9816C67.4104 51.9778 67.1498 52.0386 66.9148 52.1586C66.6797 52.2786 66.4774 52.4542 66.3252 52.6703C66.0419 53.1291 65.8928 53.8457 65.8777 54.8201V57.3316C65.8777 58.3665 66.0218 59.1376 66.3101 59.6451C66.4413 59.8879 66.6386 60.0884 66.879 60.2231C67.1194 60.3577 67.393 60.4211 67.6679 60.4057C67.9301 60.4209 68.1913 60.3633 68.4229 60.2391C68.6545 60.1149 68.8474 59.9289 68.9803 59.7018C69.2635 59.2325 69.4127 58.4981 69.428 57.4985V54.995ZM75.0006 50.1598C75.0007 50.4339 74.9197 50.702 74.7678 50.93C74.616 51.158 74.4002 51.3357 74.1477 51.4407C73.8952 51.5456 73.6174 51.5731 73.3493 51.5196C73.0812 51.4661 72.835 51.3341 72.6417 51.1403C72.4484 50.9464 72.3168 50.6994 72.2635 50.4305C72.2101 50.1615 72.2375 49.8828 72.3421 49.6295C72.4466 49.3761 72.6238 49.1596 72.851 49.0073C73.0783 48.8549 73.3454 48.7736 73.6188 48.7736C73.985 48.7742 74.3361 48.9204 74.5951 49.1802C74.854 49.4401 74.9997 49.7923 75.0001 50.1598H75.0006ZM74.1948 50.1598C74.1948 50.0454 74.1611 49.9337 74.0978 49.8386C74.0345 49.7436 73.9446 49.6695 73.8393 49.6257C73.7341 49.582 73.6182 49.5705 73.5065 49.5928C73.3947 49.6151 73.2921 49.6701 73.2115 49.7509C73.1309 49.8317 73.076 49.9347 73.0538 50.0468C73.0316 50.1589 73.043 50.2751 73.0866 50.3807C73.1301 50.4863 73.204 50.5765 73.2987 50.64C73.3934 50.7036 73.5048 50.7375 73.6188 50.7375C73.7713 50.737 73.9174 50.6759 74.0251 50.5677C74.1329 50.4594 74.1935 50.3127 74.1937 50.1598H74.1948Z" fill="#0098BF"/>
        </g>
        <defs>
            <clipPath id="clip0_207_12">
                <rect width="75" height="68" fill="white"/>
            </clipPath>
        </defs>
    </symbol>
</svg>