<svg xmlns="http://www.w3.org/2000/svg" xmlns:xlink="http://www.w3.org/1999/xlink">
    <symbol id="downloadIcon" width="35" height="35" viewBox="0 0 35 35" fill="none">
        <path fill-rule="evenodd" clip-rule="evenodd" d="M2.1875 17.5C2.1875 21.5611 3.80078 25.4559 6.67243 28.3276C9.54408 31.1992 13.4389 32.8125 17.5 32.8125C21.5611 32.8125 25.4559 31.1992 28.3276 28.3276C31.1992 25.4559 32.8125 21.5611 32.8125 17.5C32.8125 13.4389 31.1992 9.54408 28.3276 6.67243C25.4559 3.80078 21.5611 2.1875 17.5 2.1875C13.4389 2.1875 9.54408 3.80078 6.67243 6.67243C3.80078 9.54408 2.1875 13.4389 2.1875 17.5ZM35 17.5C35 22.1413 33.1563 26.5925 29.8744 29.8744C26.5925 33.1563 22.1413 35 17.5 35C12.8587 35 8.40752 33.1563 5.12563 29.8744C1.84374 26.5925 0 22.1413 0 17.5C0 12.8587 1.84374 8.40752 5.12563 5.12563C8.40752 1.84374 12.8587 0 17.5 0C22.1413 0 26.5925 1.84374 29.8744 5.12563C33.1563 8.40752 35 12.8587 35 17.5ZM18.5938 9.84375C18.5938 9.55367 18.4785 9.27547 18.2734 9.07035C18.0683 8.86523 17.7901 8.75 17.5 8.75C17.2099 8.75 16.9317 8.86523 16.7266 9.07035C16.5215 9.27547 16.4062 9.55367 16.4062 9.84375V22.5159L11.7119 17.8194C11.5065 17.614 11.2279 17.4986 10.9375 17.4986C10.6471 17.4986 10.3685 17.614 10.1631 17.8194C9.95775 18.0248 9.84237 18.3033 9.84237 18.5938C9.84237 18.8842 9.95775 19.1627 10.1631 19.3681L16.7256 25.9306C16.8272 26.0325 16.9479 26.1133 17.0808 26.1684C17.2137 26.2236 17.3561 26.252 17.5 26.252C17.6439 26.252 17.7863 26.2236 17.9192 26.1684C18.0521 26.1133 18.1728 26.0325 18.2744 25.9306L24.8369 19.3681C25.0423 19.1627 25.1576 18.8842 25.1576 18.5938C25.1576 18.3033 25.0423 18.0248 24.8369 17.8194C24.6315 17.614 24.3529 17.4986 24.0625 17.4986C23.7721 17.4986 23.4935 17.614 23.2881 17.8194L18.5938 22.5159V9.84375Z" fill="white"/>
    </symbol>
    <symbol id="tempIcon" width="23" height="26" viewBox="0 0 23 26" fill="none">
        <path d="M1.625 4.0625C1.625 2.98506 2.05301 1.95175 2.81488 1.18988C3.57675 0.428012 4.61006 0 5.6875 0C6.76494 0 7.79826 0.428012 8.56012 1.18988C9.32199 1.95175 9.75 2.98506 9.75 4.0625V16.3313C10.5338 17.1312 11.064 18.1448 11.274 19.2448C11.4841 20.3449 11.3647 21.4825 10.9309 22.515C10.497 23.5475 9.76801 24.4289 8.83523 25.0487C7.90245 25.6685 6.80744 25.9992 5.6875 25.9992C4.56756 25.9992 3.47255 25.6685 2.53977 25.0487C1.60699 24.4289 0.877967 23.5475 0.444112 22.515C0.010256 21.4825 -0.109118 20.3449 0.100958 19.2448C0.311034 18.1448 0.841209 17.1312 1.625 16.3313V4.0625ZM5.6875 1.625C5.04104 1.625 4.42105 1.88181 3.96393 2.33893C3.50681 2.79605 3.25 3.41604 3.25 4.0625V17.0414L2.97863 17.2851C2.36531 17.8336 1.93298 18.5554 1.73887 19.3549C1.54475 20.1545 1.59799 20.9942 1.89155 21.7628C2.1851 22.5314 2.70513 23.1928 3.38282 23.6594C4.0605 24.126 4.8639 24.3759 5.68669 24.3759C6.50948 24.3759 7.31287 24.126 7.99056 23.6594C8.66824 23.1928 9.18827 22.5314 9.48183 21.7628C9.77538 20.9942 9.82863 20.1545 9.63451 19.3549C9.44039 18.5554 9.00807 17.8336 8.39475 17.2851L8.125 17.0398V4.0625C8.125 3.41604 7.86819 2.79605 7.41107 2.33893C6.95395 1.88181 6.33397 1.625 5.6875 1.625ZM13.8125 3.25C14.028 3.25 14.2347 3.3356 14.387 3.48798C14.5394 3.64035 14.625 3.84701 14.625 4.0625V6.16363L15.6747 5.11225C15.8273 4.95968 16.0342 4.87397 16.25 4.87397C16.4658 4.87397 16.6727 4.95968 16.8252 5.11225C16.9778 5.26482 17.0635 5.47174 17.0635 5.6875C17.0635 5.90326 16.9778 6.11018 16.8252 6.26275L14.625 8.46138V11.5928L17.3371 10.0279L18.1415 7.02163C18.1692 6.91855 18.217 6.82196 18.2821 6.73735C18.3472 6.65274 18.4283 6.58177 18.5208 6.52851C18.6133 6.47524 18.7153 6.44072 18.8212 6.4269C18.927 6.41309 19.0346 6.42026 19.1376 6.448C19.2407 6.47574 19.3373 6.52351 19.4219 6.58859C19.5065 6.65366 19.5775 6.73476 19.6307 6.82726C19.684 6.91976 19.7185 7.02184 19.7323 7.12769C19.7462 7.23353 19.739 7.34105 19.7112 7.44413L19.3261 8.87738L21.1461 7.82763C21.3326 7.72158 21.5535 7.69361 21.7606 7.74983C21.9676 7.80604 22.1441 7.94188 22.2513 8.12769C22.3586 8.31349 22.3881 8.53419 22.3332 8.74162C22.2784 8.94905 22.1437 9.12637 21.9586 9.23488L20.1386 10.2846L21.5751 10.6698C21.6782 10.6975 21.7748 10.7453 21.8594 10.8103C21.944 10.8754 22.015 10.9565 22.0682 11.049C22.1215 11.1415 22.156 11.2436 22.1698 11.3494C22.1837 11.4553 22.1765 11.5628 22.1487 11.6659C22.121 11.7689 22.0732 11.8655 22.0082 11.9502C21.9431 12.0348 21.862 12.1057 21.7695 12.159C21.677 12.2123 21.5749 12.2468 21.4691 12.2606C21.3632 12.2744 21.2557 12.2672 21.1526 12.2395L18.1496 11.4351L15.4375 13L18.1496 14.5649L21.1542 13.7605C21.258 13.7309 21.3665 13.7223 21.4736 13.7351C21.5807 13.7479 21.6841 13.782 21.7779 13.8352C21.8717 13.8884 21.954 13.9597 22.0199 14.0451C22.0859 14.1304 22.1342 14.228 22.162 14.3322C22.1898 14.4364 22.1966 14.5451 22.182 14.6519C22.1674 14.7588 22.1317 14.8617 22.0769 14.9546C22.0221 15.0475 21.9494 15.1285 21.863 15.193C21.7765 15.2575 21.6781 15.3042 21.5735 15.3303L20.1386 15.7154L21.9586 16.7651C22.1437 16.8736 22.2784 17.051 22.3332 17.2584C22.3881 17.4658 22.3586 17.6865 22.2513 17.8723C22.1441 18.0581 21.9676 18.194 21.7606 18.2502C21.5535 18.3064 21.3326 18.2784 21.1461 18.1724L19.3261 17.1226L19.7112 18.5575C19.7408 18.6612 19.7494 18.7698 19.7366 18.8769C19.7238 18.9839 19.6898 19.0874 19.6366 19.1812C19.5834 19.275 19.512 19.3573 19.4267 19.4232C19.3413 19.4891 19.2437 19.5374 19.1395 19.5652C19.0353 19.5931 18.9267 19.5999 18.8198 19.5853C18.713 19.5707 18.6101 19.5349 18.5172 19.4802C18.4243 19.4254 18.3432 19.3527 18.2787 19.2662C18.2142 19.1798 18.1676 19.0814 18.1415 18.9768L17.3387 15.9738L14.625 14.4073V17.5386L16.8252 19.7373C16.9008 19.8128 16.9607 19.9025 17.0016 20.0012C17.0425 20.0999 17.0635 20.2057 17.0635 20.3125C17.0635 20.4193 17.0425 20.5251 17.0016 20.6238C16.9607 20.7225 16.9008 20.8122 16.8252 20.8878C16.7497 20.9633 16.66 21.0232 16.5613 21.0641C16.4626 21.105 16.3568 21.126 16.25 21.126C16.1432 21.126 16.0374 21.105 15.9387 21.0641C15.84 21.0232 15.7503 20.9633 15.6747 20.8878L14.625 19.8364V21.9375C14.625 22.153 14.5394 22.3597 14.387 22.512C14.2347 22.6644 14.028 22.75 13.8125 22.75C13.597 22.75 13.3903 22.6644 13.238 22.512C13.0856 22.3597 13 22.153 13 21.9375V4.0625C13 3.84701 13.0856 3.64035 13.238 3.48798C13.3903 3.3356 13.597 3.25 13.8125 3.25Z" fill="#0098BF"/>
    </symbol>
    <symbol id="downIcon" width="14" height="8" viewBox="0 0 14 8" fill="none">
        <path d="M2 0L7 5L12 0L14 1L7 8L0 1L2 0Z" fill="#2F2F2F"/>
    </symbol>
</svg>